<svg width="344" height="93" viewBox="0 0 344 93" fill="none" xmlns="http://www.w3.org/2000/svg">
<path d="M49.1337 41.6455L43.6021 47.1771L12.7837 77.9955C17.7592 82.9826 23.931 86.7752 30.8319 88.9073L58.0822 61.657L74.5867 78.1615C76.4459 76.3178 78.1396 74.3083 79.6459 72.1575L63.6138 56.1254L49.1337 41.6455Z" fill="#30A9B4"/>
<path d="M85.5956 34.1433C83.4634 27.2422 79.6708 21.0706 74.6837 16.0951C70.5889 12.0098 65.6882 8.73321 60.242 6.51927C55.157 4.45225 49.5972 3.31055 43.77 3.31055C40.1774 3.31055 36.6874 3.74652 33.3465 4.56274C28.012 5.8661 23.0611 8.14614 18.6942 11.2042C16.5433 12.7104 14.5338 14.4041 12.6902 16.2633C4.84634 24.1735 0 35.0606 0 47.0807C0 52.9079 1.14151 58.4679 3.20873 63.5528L31.5942 35.1673L37.1258 29.6357L47.7726 18.9889L59.7814 30.9976L74.2615 45.4777L86.2881 57.5044C87.1044 54.1635 87.5403 50.6733 87.5403 47.0807C87.5399 42.5768 86.8589 38.2321 85.5956 34.1433Z" fill="#1D3557"/>
<path d="M328.25 13.585C332.366 13.585 335.725 14.7116 338.325 16.965C340.968 19.175 342.29 22.5116 342.29 26.975C342.29 29.8783 341.488 32.63 339.885 35.23C338.325 37.7866 336.245 40.0183 333.645 41.925C331.045 43.7883 328.228 45.1316 325.195 45.955L332.28 54.6C333.536 55.77 334.793 56.355 336.05 56.355C337.09 56.355 338.151 55.965 339.235 55.185C340.318 54.405 341.423 53.4516 342.55 52.325L343.525 53.17C343.351 53.3866 342.68 54.275 341.51 55.835C340.383 57.3516 339.061 58.6083 337.545 59.605C336.071 60.6016 334.62 61.1 333.19 61.1C331.976 61.1 330.806 60.7316 329.68 59.995C328.596 59.215 327.405 58.0016 326.105 56.355L318.305 46.8L318.695 45.045C321.598 44.7416 324.371 43.8533 327.015 42.38C329.701 40.8633 331.868 38.87 333.515 36.4C335.161 33.93 335.985 31.2 335.985 28.21C335.985 24.96 334.988 22.36 332.995 20.41C331.045 18.46 328.141 17.485 324.285 17.485C321.295 17.485 318.131 18.2 314.795 19.63C311.501 21.0166 308.62 22.8366 306.15 25.09L304.915 23.725C308.078 20.7783 311.761 18.3516 315.965 16.445C320.211 14.5383 324.306 13.585 328.25 13.585ZM314.86 58.63L308.88 61.035V25.285L314.86 23.01V58.63Z" fill="#1D3557"/>
<path d="M287.113 12.7393C290.016 12.7393 292.768 13.4109 295.368 14.7543C297.968 16.0543 300.156 17.9176 301.933 20.3443L296.863 26.5843C295.779 23.5509 294.154 21.0376 291.988 19.0443C289.864 17.0509 287.329 16.0543 284.383 16.0543C281.566 16.0543 279.378 16.8559 277.818 18.4593C276.258 20.0626 275.478 22.1209 275.478 24.6343C275.478 26.9743 276.041 28.9243 277.168 30.4843C278.294 32.0443 279.659 33.3009 281.263 34.2543C282.866 35.2076 285.033 36.2909 287.763 37.5043C290.363 38.6743 292.399 39.6926 293.873 40.5593C295.389 41.4259 296.668 42.5526 297.708 43.9393C298.748 45.3259 299.268 47.0376 299.268 49.0743C299.311 52.8443 298.098 55.7476 295.628 57.7843C293.158 59.8209 289.951 60.8393 286.008 60.8393C283.104 60.8393 280.331 60.2759 277.688 59.1493C275.088 57.9793 273.008 56.2243 271.448 53.8843L276.518 48.2293C277.991 51.6959 279.789 54.1659 281.913 55.6393C284.036 57.0693 286.094 57.7843 288.088 57.7843C289.951 57.7843 291.533 57.2859 292.833 56.2893C294.176 55.2493 294.848 53.9059 294.848 52.2593C294.848 50.7426 294.371 49.4209 293.418 48.2943C292.508 47.1243 291.359 46.1493 289.973 45.3693C288.586 44.5459 286.701 43.5926 284.318 42.5093C281.284 41.1226 278.858 39.8659 277.038 38.7393C275.218 37.6126 273.658 36.1393 272.358 34.3193C271.058 32.4559 270.408 30.2026 270.408 27.5593C270.408 24.7859 271.123 22.2726 272.553 20.0193C274.026 17.7226 276.041 15.9459 278.598 14.6893C281.154 13.3893 283.993 12.7393 287.113 12.7393Z" fill="#1D3557"/>
<path d="M256.728 15.6643C251.918 16.3143 247.585 17.9826 243.728 20.6693C239.872 23.3126 236.838 26.671 234.628 30.7443C232.462 34.7743 231.378 39.151 231.378 43.8743C231.378 47.8176 232.137 50.9376 233.653 53.2343C235.17 55.531 237.163 56.6793 239.633 56.6793C242.06 56.6793 244.378 55.011 246.588 51.6743C248.842 48.2943 250.64 43.896 251.983 38.4793C253.37 33.0193 254.063 27.3426 254.063 21.4493L260.173 19.0443V53.1043C260.173 54.3176 260.433 55.2926 260.953 56.0293C261.473 56.766 262.188 57.1343 263.098 57.1343C263.792 57.1343 264.507 56.9176 265.243 56.4843C265.98 56.0076 266.543 55.4443 266.933 54.7943L267.843 55.6393C267.237 56.9826 266.305 58.1093 265.048 59.0193C263.792 59.9293 262.362 60.3843 260.758 60.3843C258.765 60.3843 257.14 59.691 255.883 58.3043C254.67 56.9176 254.063 54.946 254.063 52.3893V39.9743H253.738C250.618 53.841 245.332 60.7743 237.878 60.7743C234.022 60.7743 230.923 59.431 228.583 56.7443C226.243 54.0143 225.073 50.2876 225.073 45.5643C225.073 40.1476 226.503 35.056 229.363 30.2893C232.223 25.5226 236.08 21.6443 240.933 18.6543C245.787 15.6643 251.052 14.0393 256.728 13.7793V15.6643Z" fill="#1D3557"/>
<path d="M181.879 38.4791L183.959 32.9541H205.864L203.914 38.4791H181.879Z" fill="#1D3557"/>
<path d="M156.486 54.6C156.486 55.12 156.637 55.6183 156.941 56.095C157.244 56.5717 157.764 56.81 158.501 56.81C159.107 56.81 159.736 56.55 160.386 56.03C161.079 55.4667 161.599 54.8817 161.946 54.275L163.051 55.25C162.314 56.68 161.296 57.8933 159.996 58.89C158.696 59.8867 157.396 60.385 156.096 60.385C152.456 60.385 150.636 58.1967 150.636 53.82V2.47L156.486 0V54.6Z" fill="#1D3557"/>
<path d="M133.901 15.6643C129.091 16.3143 124.758 17.9826 120.901 20.6693C117.044 23.3126 114.011 26.671 111.801 30.7443C109.634 34.7743 108.551 39.151 108.551 43.8743C108.551 47.8176 109.309 50.9376 110.826 53.2343C112.343 55.531 114.336 56.6793 116.806 56.6793C119.233 56.6793 121.551 55.011 123.761 51.6743C126.014 48.2943 127.813 43.896 129.156 38.4793C130.543 33.0193 131.236 27.3426 131.236 21.4493L137.346 19.0443V53.1043C137.346 54.3176 137.606 55.2926 138.126 56.0293C138.646 56.766 139.361 57.1343 140.271 57.1343C140.964 57.1343 141.679 56.9176 142.416 56.4843C143.153 56.0076 143.716 55.4443 144.106 54.7943L145.016 55.6393C144.409 56.9826 143.478 58.1093 142.221 59.0193C140.964 59.9293 139.534 60.3843 137.931 60.3843C135.938 60.3843 134.313 59.691 133.056 58.3043C131.843 56.9176 131.236 54.946 131.236 52.3893V39.9743H130.911C127.791 53.841 122.504 60.7743 115.051 60.7743C111.194 60.7743 108.096 59.431 105.756 56.7443C103.416 54.0143 102.246 50.2876 102.246 45.5643C102.246 40.1476 103.676 35.056 106.536 30.2893C109.396 25.5226 113.253 21.6443 118.106 18.6543C122.959 15.6643 128.224 14.0393 133.901 13.7793V15.6643Z" fill="#1D3557"/>
<path d="M343.259 85.5445C343.259 86.6785 342.994 87.7622 342.465 88.7955C341.936 89.8288 341.236 90.6541 340.367 91.2716C339.497 91.9016 338.59 92.2166 337.645 92.2166C337.305 92.2166 336.984 92.1662 336.681 92.0654C336.379 91.9646 336.064 91.8008 335.736 91.574L337.135 89.8162C337.425 90.0934 337.746 90.3076 338.099 90.4588C338.452 90.6226 338.767 90.7045 339.044 90.7045C339.649 90.7045 340.127 90.2635 340.48 89.3814C340.833 88.512 341.009 87.3149 341.009 85.7902C341.009 83.5598 341.035 81.9154 341.085 80.857H340.972C340.09 84.8262 338.823 86.8109 337.173 86.8109C336.795 86.8109 336.498 86.7353 336.284 86.584C336.083 86.4328 335.938 86.1745 335.849 85.8091C335.774 85.4311 335.736 84.8955 335.736 84.2025V78.9479C335.736 78.7337 335.692 78.5699 335.604 78.4565C335.516 78.3305 335.396 78.2675 335.245 78.2675C335.093 78.2675 334.93 78.3242 334.753 78.4376C334.589 78.551 334.432 78.7211 334.281 78.9479L333.94 78.5888C334.23 77.9966 334.539 77.5807 334.867 77.3413C335.207 77.0893 335.642 76.9633 336.171 76.9633C336.75 76.9633 337.198 77.1397 337.513 77.4925C337.828 77.8328 337.985 78.3179 337.985 78.9479V84.0135C337.985 84.2277 338.017 84.3915 338.08 84.5049C338.143 84.6183 338.225 84.675 338.326 84.675C338.628 84.675 338.981 84.2781 339.384 83.4842C339.8 82.6904 340.153 81.739 340.442 80.6301C340.745 79.5213 340.896 78.5384 340.896 77.6815L343.259 76.8877V85.5445Z" fill="#708090"/>
<path d="M329.998 77.0195C330.578 77.0195 331.114 77.1707 331.605 77.4732C332.109 77.7756 332.5 78.2418 332.777 78.8719L330.811 79.9303C330.685 79.4011 330.458 78.9916 330.131 78.7017C329.803 78.3993 329.45 78.2481 329.072 78.2481C328.568 78.2481 328.121 78.4056 327.73 78.7206C327.34 79.0231 327.037 79.42 326.823 79.9114C326.621 80.4029 326.521 80.9195 326.521 81.4613C326.521 82.3056 326.653 83.0364 326.917 83.6539C327.182 84.2713 327.541 84.7438 327.995 85.0715C328.461 85.3865 328.984 85.544 329.564 85.544C330.723 85.544 331.838 84.8825 332.909 83.5594L333.344 83.9374C332.714 84.8573 332.04 85.5692 331.321 86.0732C330.616 86.5647 329.772 86.8104 328.789 86.8104C327.995 86.8104 327.283 86.6277 326.653 86.2622C326.023 85.8842 325.525 85.3613 325.16 84.6934C324.807 84.013 324.63 83.2317 324.63 82.3497C324.63 81.3794 324.845 80.4911 325.273 79.6846C325.701 78.8656 326.319 78.2166 327.125 77.7378C327.944 77.2589 328.902 77.0195 329.998 77.0195Z" fill="#708090"/>
<path d="M320.526 76.9629C320.967 76.9629 321.288 77.0952 321.49 77.3598C321.691 77.6118 321.817 77.9143 321.868 78.2671C321.918 78.6073 321.943 79.0483 321.943 79.5902V84.8447C321.943 84.9959 321.987 85.1408 322.076 85.2794C322.176 85.4055 322.296 85.4685 322.435 85.4685C322.624 85.4685 322.788 85.4118 322.926 85.2983C323.077 85.1723 323.235 85.0085 323.399 84.8069L323.72 85.166C323.493 85.6071 323.178 85.9788 322.775 86.2812C322.384 86.571 321.962 86.7159 321.509 86.7159C320.904 86.7159 320.45 86.5458 320.148 86.2056C319.845 85.8528 319.694 85.3613 319.694 84.7313V79.7792C319.694 79.6028 319.675 79.4516 319.637 79.3255C319.6 79.1995 319.511 79.1365 319.373 79.1365C318.944 79.1365 318.51 79.5965 318.069 80.5163C317.628 81.4236 317.256 82.4695 316.953 83.6539C316.651 84.8384 316.5 85.7331 316.5 86.3379L314.288 86.8293V78.8908C314.288 78.7018 314.244 78.5443 314.156 78.4183C314.068 78.2923 313.942 78.2293 313.778 78.2293C313.602 78.2293 313.425 78.3049 313.249 78.4561C313.085 78.5947 312.946 78.7585 312.833 78.9475L312.493 78.5695C312.682 78.1285 312.978 77.7504 313.381 77.4354C313.784 77.1204 314.219 76.9629 314.685 76.9629C315.315 76.9629 315.775 77.1393 316.065 77.4921C316.355 77.8323 316.5 78.3112 316.5 78.9286V82.5766H316.575C316.916 81.1779 317.42 79.8926 318.087 78.7207C318.768 77.5488 319.581 76.9629 320.526 76.9629Z" fill="#708090"/>
<path d="M307.164 77.1318C307.832 77.1318 308.45 77.2641 309.017 77.5288C309.596 77.7934 310.025 78.2029 310.302 78.7573L308.468 79.5134C308.292 79.1858 308.046 78.9149 307.731 78.7006C307.416 78.4864 307.082 78.3793 306.73 78.3793C305.885 78.3793 305.217 78.7321 304.726 79.4378C304.235 80.1434 303.989 81.0255 303.989 82.084C303.989 83.0542 304.134 83.8544 304.424 84.4844C304.713 85.1019 305.173 85.4106 305.803 85.4106C306.685 85.4106 307.29 85.0011 307.618 84.182C307.946 83.3503 308.109 82.4494 308.109 81.4791V80.6475L310.321 79.8536V84.7679C310.321 84.9444 310.359 85.1019 310.434 85.2405C310.522 85.3665 310.648 85.4295 310.812 85.4295C311.127 85.4295 311.449 85.209 311.776 84.7679L312.135 85.1271C311.946 85.5681 311.644 85.9461 311.228 86.2611C310.825 86.5636 310.39 86.7148 309.924 86.7148C309.319 86.7148 308.878 86.5132 308.601 86.1099C308.324 85.6941 308.185 85.1649 308.185 84.5222H308.109C307.807 85.2027 307.404 85.7571 306.9 86.1855C306.396 86.6014 305.81 86.8093 305.142 86.8093C304.134 86.8093 303.353 86.4439 302.798 85.713C302.256 84.9696 301.985 84.0056 301.985 82.8211C301.985 81.813 302.2 80.8743 302.628 80.0048C303.069 79.1354 303.68 78.4423 304.461 77.9257C305.255 77.3965 306.156 77.1318 307.164 77.1318Z" fill="#708090"/>
<path d="M298.589 78.3804V84.8446C298.589 85.021 298.639 85.1723 298.74 85.2983C298.841 85.4117 298.973 85.4684 299.137 85.4684C299.44 85.4684 299.78 85.2479 300.158 84.8068L300.498 85.166C300.271 85.6196 299.988 85.9598 299.647 86.1866C299.307 86.4134 298.98 86.5646 298.665 86.6403C298.35 86.7159 298.192 86.7411 298.192 86.7159C296.932 86.7159 296.302 86.0543 296.302 84.7312V78.3804H294.96L295.546 77.1329H296.302V72.8423L298.589 72.0674V77.1329H301.065L300.498 78.3804H298.589Z" fill="#708090"/>
<path d="M292.531 84.8444C292.531 85.0082 292.569 85.1531 292.644 85.2791C292.733 85.4051 292.865 85.4681 293.041 85.4681C293.218 85.4681 293.394 85.3988 293.571 85.2602C293.76 85.1216 293.911 84.9704 294.024 84.8066L294.364 85.1657C294.15 85.5941 293.835 85.9595 293.419 86.262C293.016 86.5644 292.581 86.7156 292.115 86.7156C290.893 86.7156 290.282 86.054 290.282 84.7309V69.9124L292.531 69.0996V84.8444Z" fill="#708090"/>
<path d="M286.684 84.8262C286.684 85.0152 286.728 85.1727 286.816 85.2988C286.904 85.4122 287.03 85.4689 287.194 85.4689C287.446 85.4689 287.755 85.2547 288.12 84.8262L288.442 85.1664C288.126 85.8091 287.736 86.2312 287.27 86.4328C286.803 86.6218 286.451 86.7163 286.211 86.7163C285.745 86.7163 285.386 86.6092 285.134 86.395C284.894 86.1808 284.718 85.828 284.605 85.3366C284.504 84.8325 284.453 84.1269 284.453 83.2196V82.6526L284.378 81.3484H284.302C284 82.6967 283.546 83.9442 282.941 85.0908C282.349 86.2375 281.568 86.8109 280.597 86.8109C280.169 86.8109 279.848 86.71 279.634 86.5084C279.432 86.2942 279.3 86.0107 279.237 85.6579C279.186 85.3051 279.161 84.8199 279.161 84.2025V78.9479C279.161 78.7337 279.117 78.5699 279.029 78.4565C278.94 78.3305 278.821 78.2675 278.67 78.2675C278.367 78.2675 278.046 78.4943 277.706 78.9479L277.384 78.5888C277.598 78.1226 277.869 77.7698 278.197 77.5303C278.525 77.2909 278.808 77.1397 279.048 77.0767C279.3 77.0137 279.463 76.9822 279.539 76.9822C280.219 76.9822 280.705 77.1712 280.994 77.5492C281.284 77.9147 281.429 78.3809 281.429 78.9479V83.9946C281.429 84.2214 281.454 84.3978 281.505 84.5238C281.568 84.6498 281.643 84.7128 281.732 84.7128C282.185 84.7128 282.607 84.2592 282.998 83.3519C283.389 82.4321 283.704 81.3925 283.943 80.2332C284.182 79.0613 284.302 78.2108 284.302 77.6815L286.684 76.8877V84.8262Z" fill="#708090"/>
<path d="M273.24 76.3584C274.097 76.3584 274.525 76.6986 274.525 77.3791C274.513 77.6815 274.45 77.9461 274.336 78.1729C274.223 78.3997 274.097 78.6013 273.958 78.7778C273.832 78.9542 273.744 79.0739 273.694 79.1369C273.858 79.3259 274.154 79.5968 274.582 79.9496C274.973 80.2647 275.288 80.5545 275.527 80.8191C275.767 81.0711 275.968 81.3987 276.132 81.802C276.296 82.1926 276.378 82.6714 276.378 83.2385C276.378 83.8937 276.214 84.4985 275.886 85.053C275.571 85.5948 275.136 86.0232 274.582 86.3383C274.028 86.6533 273.416 86.8108 272.749 86.8108C272.257 86.8108 271.747 86.7226 271.218 86.5462C270.688 86.3698 270.291 86.124 270.027 85.809L271.407 83.9567C271.671 84.3599 271.986 84.7191 272.352 85.0341C272.717 85.3491 273.083 85.5066 273.448 85.5066C273.914 85.5066 274.317 85.3491 274.658 85.0341C274.998 84.7191 275.168 84.3221 275.168 83.8433C275.168 83.4527 275.004 83.0683 274.677 82.6903C274.349 82.3123 273.883 81.8524 273.278 81.3105C272.862 80.9451 272.597 80.6994 272.484 80.5734L271.199 82.4446L270.518 81.991L271.993 79.9496C271.741 79.496 271.615 78.9731 271.615 78.3808C271.615 77.8012 271.753 77.3224 272.03 76.9443C272.308 76.5537 272.711 76.3584 273.24 76.3584ZM273.24 77.1334C273.089 77.1334 272.988 77.1775 272.938 77.2657C272.887 77.3539 272.862 77.4799 272.862 77.6437C272.862 77.7823 272.887 77.9209 272.938 78.0595C272.988 78.1981 273.045 78.3367 273.108 78.4753C273.246 78.3745 273.366 78.2233 273.467 78.0217C273.568 77.8201 273.618 77.6437 273.618 77.4925C273.618 77.3917 273.58 77.3098 273.505 77.2468C273.442 77.1712 273.353 77.1334 273.24 77.1334Z" fill="#708090"/>
<path d="M266.093 76.9629C266.534 76.9629 266.855 77.0952 267.057 77.3598C267.258 77.6118 267.384 77.9143 267.435 78.2671C267.485 78.6073 267.51 79.0483 267.51 79.5902V84.8447C267.51 84.9959 267.554 85.1408 267.643 85.2794C267.743 85.4055 267.863 85.4685 268.002 85.4685C268.191 85.4685 268.354 85.4118 268.493 85.2983C268.644 85.1723 268.802 85.0085 268.966 84.8069L269.287 85.166C269.06 85.6071 268.745 85.9788 268.342 86.2812C267.951 86.571 267.529 86.7159 267.075 86.7159C266.471 86.7159 266.017 86.5458 265.715 86.2056C265.412 85.8528 265.261 85.3613 265.261 84.7313V79.7792C265.261 79.6028 265.242 79.4516 265.204 79.3255C265.166 79.1995 265.078 79.1365 264.94 79.1365C264.511 79.1365 264.076 79.5965 263.635 80.5163C263.194 81.4236 262.823 82.4695 262.52 83.6539C262.218 84.8384 262.067 85.7331 262.067 86.3379L259.855 86.8293V78.8908C259.855 78.7018 259.811 78.5443 259.723 78.4183C259.635 78.2923 259.509 78.2293 259.345 78.2293C259.168 78.2293 258.992 78.3049 258.816 78.4561C258.652 78.5947 258.513 78.7585 258.4 78.9475L258.06 78.5695C258.249 78.1285 258.545 77.7504 258.948 77.4354C259.351 77.1204 259.786 76.9629 260.252 76.9629C260.882 76.9629 261.342 77.1393 261.632 77.4921C261.922 77.8323 262.067 78.3112 262.067 78.9286V82.5766H262.142C262.482 81.1779 262.987 79.8926 263.654 78.7207C264.335 77.5488 265.148 76.9629 266.093 76.9629Z" fill="#708090"/>
<path d="M252.925 77.3595C252.094 77.9518 251.438 78.6259 250.96 79.382C250.493 80.1254 250.26 81.0012 250.26 82.0092C250.26 82.5637 250.367 83.1244 250.582 83.6915C250.796 84.2585 251.111 84.731 251.527 85.109C251.942 85.4745 252.44 85.6572 253.02 85.6572C253.751 85.6572 254.337 85.3926 254.778 84.8633C255.231 84.3341 255.458 83.6789 255.458 82.8976C255.458 82.3054 255.301 81.7068 254.986 81.102C254.683 80.4845 254.274 79.9679 253.757 79.5521C253.24 79.1237 252.686 78.8842 252.094 78.8338C252.358 78.544 252.642 78.2794 252.944 78.04C253.259 77.8006 253.65 77.5107 254.116 77.1705C255.023 77.4729 255.742 78.0337 256.271 78.8527C256.813 79.6718 257.084 80.5727 257.084 81.5556C257.084 82.4251 256.888 83.2693 256.498 84.0884C256.12 84.9074 255.565 85.5753 254.834 86.0919C254.116 86.5959 253.278 86.848 252.32 86.848C251.527 86.848 250.796 86.6653 250.128 86.2998C249.473 85.9218 248.95 85.4115 248.559 84.7688C248.168 84.1136 247.973 83.3953 247.973 82.6141C247.973 81.2658 248.395 80.0813 249.24 79.0606C250.096 78.04 251.205 77.328 252.566 76.9248L252.925 77.3595Z" fill="#708090"/>
<path d="M244.537 72.7861C245.381 72.7861 246.061 73.0129 246.578 73.4666C247.095 73.9202 247.353 74.5187 247.353 75.2622C247.353 75.867 247.183 76.4782 246.843 77.0956C246.502 77.7005 246.042 78.236 245.463 78.7022C244.896 79.1685 244.266 79.4961 243.573 79.6851L243.289 79.1937C243.831 78.9416 244.266 78.5573 244.593 78.0407C244.934 77.5114 245.104 76.9444 245.104 76.3396C245.104 75.6213 244.908 75.048 244.518 74.6196C244.127 74.1785 243.617 73.958 242.987 73.958C242.319 73.958 241.689 74.2289 241.097 74.7708C240.517 75.3 240.051 76.0182 239.698 76.9255C239.358 77.8202 239.188 78.7841 239.188 79.8174C239.188 80.8759 239.351 81.8146 239.679 82.6337C240.007 83.4401 240.46 84.0702 241.04 84.5238C241.632 84.9774 242.306 85.2043 243.062 85.2043C243.604 85.2043 244.146 85.0719 244.688 84.8073C245.242 84.5301 245.778 84.1332 246.295 83.6166L246.805 84.0891C246.213 84.8577 245.475 85.5004 244.593 86.017C243.724 86.521 242.81 86.7731 241.853 86.7731C240.819 86.7731 239.912 86.5336 239.131 86.0548C238.362 85.576 237.77 84.9144 237.354 84.0702C236.938 83.2133 236.73 82.2368 236.73 81.1405C236.73 79.6032 237.077 78.1982 237.77 76.9255C238.476 75.6402 239.421 74.6322 240.605 73.9013C241.802 73.1579 243.113 72.7861 244.537 72.7861Z" fill="#708090"/>
<path d="M232.505 84.5803C232.076 85.2985 231.572 85.853 230.993 86.2436C230.426 86.6216 229.84 86.8106 229.235 86.8106C228.907 86.8106 228.605 86.7602 228.328 86.6594C228.063 86.5586 227.805 86.3948 227.553 86.168C226.671 86.7098 225.65 86.9808 224.491 86.9808C223.735 86.9808 223.041 86.8358 222.411 86.546C221.794 86.2562 221.296 85.8341 220.918 85.2796C220.553 84.7126 220.37 84.0385 220.37 83.2572C220.37 82.4634 220.61 81.7514 221.088 81.1214C221.567 80.4913 222.26 79.9747 223.168 79.5715L222.96 79.2312C222.645 78.6264 222.424 78.0972 222.298 77.6435C222.172 77.1773 222.109 76.7363 222.109 76.3204C222.109 75.703 222.273 75.1675 222.6 74.7138C222.941 74.2476 223.375 73.8948 223.905 73.6554C224.434 73.4034 224.988 73.2773 225.568 73.2773C226.324 73.2773 226.979 73.4097 227.534 73.6743C228.088 73.9389 228.51 74.2854 228.8 74.7138C229.09 75.1423 229.235 75.5833 229.235 76.0369C229.235 76.6418 228.97 77.2214 228.441 77.7758C227.912 78.3177 227.175 78.6894 226.229 78.891L226.04 78.3996C226.784 78.0216 227.156 77.2907 227.156 76.207C227.156 75.6148 227.011 75.1234 226.721 74.7327C226.444 74.3295 226.066 74.1279 225.587 74.1279C225.108 74.1279 224.743 74.2791 224.491 74.5815C224.251 74.884 224.131 75.2746 224.131 75.7534C224.131 76.4339 224.314 77.1143 224.68 77.7947L228.101 83.2005C228.252 82.5075 228.328 81.6632 228.328 80.6677L230.426 80.0818C230.426 81.9719 229.991 83.5218 229.121 84.7315C229.436 85.1095 229.821 85.2985 230.274 85.2985C230.577 85.2859 230.886 85.1914 231.201 85.015C231.528 84.826 231.812 84.5677 232.051 84.2401L232.505 84.5803ZM222.582 82.8414C222.582 83.6226 222.72 84.2527 222.997 84.7315C223.275 85.1977 223.602 85.5254 223.98 85.7144C224.358 85.9034 224.724 85.9979 225.077 85.9979C225.807 85.9979 226.412 85.8089 226.891 85.4309C226.752 85.2544 226.62 85.0654 226.494 84.8638L223.697 80.4031C222.953 81.0332 222.582 81.8459 222.582 82.8414Z" fill="#708090"/>
<path d="M213.385 78.3804V84.8446C213.385 85.021 213.436 85.1723 213.537 85.2983C213.637 85.4117 213.77 85.4684 213.934 85.4684C214.236 85.4684 214.576 85.2479 214.954 84.8068L215.294 85.166C215.068 85.6196 214.784 85.9598 214.444 86.1866C214.104 86.4134 213.776 86.5646 213.461 86.6403C213.146 86.7159 212.988 86.7411 212.988 86.7159C211.728 86.7159 211.098 86.0543 211.098 84.7312V78.3804H209.756L210.342 77.1329H211.098V72.8423L213.385 72.0674V77.1329H215.861L215.294 78.3804H213.385Z" fill="#708090"/>
<path d="M206.011 76.9629C206.452 76.9629 206.773 77.0952 206.975 77.3598C207.176 77.6118 207.302 77.9143 207.353 78.2671C207.403 78.6073 207.428 79.0483 207.428 79.5902V84.8447C207.428 84.9959 207.472 85.1408 207.56 85.2794C207.661 85.4055 207.781 85.4685 207.92 85.4685C208.109 85.4685 208.272 85.4118 208.411 85.2983C208.562 85.1723 208.72 85.0085 208.884 84.8069L209.205 85.166C208.978 85.6071 208.663 85.9788 208.26 86.2812C207.869 86.571 207.447 86.7159 206.993 86.7159C206.389 86.7159 205.935 86.5458 205.633 86.2056C205.33 85.8528 205.179 85.3613 205.179 84.7313V79.7792C205.179 79.6028 205.16 79.4516 205.122 79.3255C205.084 79.1995 204.996 79.1365 204.858 79.1365C204.429 79.1365 203.994 79.5965 203.553 80.5163C203.112 81.4236 202.741 82.4695 202.438 83.6539C202.136 84.8384 201.985 85.7331 201.985 86.3379L199.773 86.8293V78.8908C199.773 78.7018 199.729 78.5443 199.641 78.4183C199.553 78.2923 199.427 78.2293 199.263 78.2293C199.086 78.2293 198.91 78.3049 198.734 78.4561C198.57 78.5947 198.431 78.7585 198.318 78.9475L197.978 78.5695C198.167 78.1285 198.463 77.7504 198.866 77.4354C199.269 77.1204 199.704 76.9629 200.17 76.9629C200.8 76.9629 201.26 77.1393 201.55 77.4921C201.84 77.8323 201.985 78.3112 201.985 78.9286V82.5766H202.06C202.4 81.1779 202.904 79.8926 203.572 78.7207C204.253 77.5488 205.066 76.9629 206.011 76.9629Z" fill="#708090"/>
<path d="M194.023 76.9629C194.754 76.9629 195.365 77.1519 195.856 77.5299C196.348 77.8954 196.593 78.4309 196.593 79.1365C196.593 79.7036 196.285 80.3399 195.667 81.0456C195.062 81.7386 194.338 82.3876 193.493 82.9924C192.662 83.5846 191.95 84.0131 191.358 84.2777C191.887 85.1219 192.662 85.5441 193.682 85.5441C194.25 85.5441 194.817 85.3865 195.384 85.0715C195.963 84.7439 196.455 84.3155 196.858 83.7862L197.236 84.2399C196.581 85.0589 195.888 85.6953 195.157 86.1489C194.439 86.5899 193.582 86.8104 192.586 86.8104C191.78 86.8104 191.055 86.6277 190.413 86.2623C189.783 85.8969 189.285 85.3992 188.919 84.7691C188.567 84.1265 188.39 83.4082 188.39 82.6144C188.39 81.6567 188.648 80.7431 189.165 79.8737C189.694 78.9916 190.394 78.286 191.263 77.7567C192.133 77.2275 193.052 76.9629 194.023 76.9629ZM192.945 78.1915C192.467 78.1915 192.038 78.3679 191.66 78.7207C191.282 79.0609 190.986 79.502 190.772 80.0438C190.557 80.5856 190.45 81.1464 190.45 81.726C190.45 82.4821 190.614 83.131 190.942 83.6728C191.408 83.4082 191.899 83.0428 192.416 82.5766C192.945 82.0977 193.386 81.5874 193.739 81.0456C194.092 80.5037 194.268 80.0123 194.268 79.5713C194.268 79.1302 194.149 78.79 193.909 78.5506C193.682 78.3112 193.361 78.1915 192.945 78.1915Z" fill="#708090"/>
<path d="M184.112 76.9629C184.591 76.9629 184.937 77.1204 185.151 77.4354C185.378 77.7378 185.492 78.1915 185.492 78.7963V84.8447C185.492 85.0211 185.536 85.1723 185.624 85.2983C185.712 85.4118 185.832 85.4685 185.983 85.4685C186.122 85.4685 186.273 85.4118 186.437 85.2983C186.613 85.1849 186.777 85.0211 186.928 84.8069L187.268 85.166C186.953 85.8087 186.569 86.2308 186.115 86.4324C185.662 86.6214 185.309 86.7159 185.057 86.7159C183.835 86.7159 183.224 86.0544 183.224 84.7313V79.628C183.224 79.502 183.192 79.3886 183.129 79.2877C183.079 79.1869 183.009 79.1365 182.921 79.1365C182.656 79.1365 182.379 79.439 182.089 80.0438C181.812 80.636 181.573 81.4803 181.371 82.5766C181.182 83.6728 181.088 84.9266 181.088 86.3379L178.801 86.8293V79.628C178.801 79.502 178.775 79.3886 178.725 79.2877C178.675 79.1869 178.605 79.1365 178.517 79.1365C178.278 79.1365 178.007 79.439 177.704 80.0438C177.415 80.6486 177.163 81.4992 176.948 82.5955C176.747 83.6917 176.646 84.9392 176.646 86.3379L174.453 86.8293V78.8908C174.453 78.6892 174.403 78.5317 174.302 78.4183C174.214 78.2923 174.094 78.2293 173.943 78.2293C173.792 78.2293 173.634 78.2923 173.47 78.4183C173.307 78.5443 173.155 78.7207 173.017 78.9475L172.658 78.5695C172.973 77.9143 173.363 77.4858 173.83 77.2842C174.296 77.07 174.649 76.9629 174.888 76.9629C176.073 76.9629 176.665 77.6244 176.665 78.9475V81.1968H176.74C177.055 79.8737 177.478 78.8404 178.007 78.097C178.549 77.3409 179.109 76.9629 179.689 76.9629C180.193 76.9629 180.546 77.1141 180.747 77.4165C180.949 77.7189 181.05 78.1789 181.05 78.7963V81.1968H181.163C181.466 79.8737 181.882 78.8404 182.411 78.097C182.953 77.3409 183.52 76.9629 184.112 76.9629Z" fill="#708090"/>
<path d="M168.495 76.9629C169.226 76.9629 169.837 77.1519 170.328 77.5299C170.82 77.8954 171.065 78.4309 171.065 79.1365C171.065 79.7036 170.757 80.3399 170.139 81.0456C169.534 81.7386 168.81 82.3876 167.966 82.9924C167.134 83.5846 166.422 84.0131 165.83 84.2777C166.359 85.1219 167.134 85.5441 168.155 85.5441C168.722 85.5441 169.289 85.3865 169.856 85.0715C170.435 84.7439 170.927 84.3155 171.33 83.7862L171.708 84.2399C171.053 85.0589 170.36 85.6953 169.629 86.1489C168.911 86.5899 168.054 86.8104 167.058 86.8104C166.252 86.8104 165.527 86.6277 164.885 86.2623C164.255 85.8969 163.757 85.3992 163.392 84.7691C163.039 84.1265 162.862 83.4082 162.862 82.6144C162.862 81.6567 163.121 80.7431 163.637 79.8737C164.166 78.9916 164.866 78.286 165.735 77.7567C166.605 77.2275 167.525 76.9629 168.495 76.9629ZM167.418 78.1915C166.939 78.1915 166.51 78.3679 166.132 78.7207C165.754 79.0609 165.458 79.502 165.244 80.0438C165.03 80.5856 164.923 81.1464 164.923 81.726C164.923 82.4821 165.086 83.131 165.414 83.6728C165.88 83.4082 166.372 83.0428 166.888 82.5766C167.418 82.0977 167.859 81.5874 168.211 81.0456C168.564 80.5037 168.741 80.0123 168.741 79.5713C168.741 79.1302 168.621 78.79 168.381 78.5506C168.155 78.3112 167.833 78.1915 167.418 78.1915Z" fill="#708090"/>
<path d="M157.596 76.9629C158.251 76.9629 158.869 77.1204 159.448 77.4354C160.041 77.7504 160.482 78.1915 160.771 78.7585L158.938 79.5146C158.749 79.0861 158.497 78.7585 158.182 78.5317C157.88 78.2923 157.546 78.1726 157.18 78.1726C156.638 78.1726 156.16 78.3805 155.744 78.7963C155.328 79.1995 155.007 79.7036 154.78 80.3084C154.566 80.9133 154.458 81.5055 154.458 82.0851C154.458 82.9798 154.616 83.761 154.931 84.4289C155.246 85.0841 155.75 85.4118 156.443 85.4118C157.237 85.4118 157.785 84.9959 158.088 84.1643C158.403 83.3326 158.56 82.438 158.56 81.4803V80.6486L160.79 79.8548V85.6575C160.79 86.6277 160.538 87.6169 160.034 88.625C159.53 89.6456 158.85 90.4836 157.993 91.1388C157.136 91.8067 156.21 92.1406 155.215 92.1406C154.509 92.1406 153.929 91.9075 153.476 91.4413L155.082 89.9103C155.485 90.4395 155.958 90.7041 156.5 90.7041C157.344 90.7041 157.899 90.3828 158.163 89.7401C158.44 89.1101 158.579 88.2721 158.579 87.2263L158.56 85.9032C158.56 85.3361 158.61 84.8762 158.711 84.5234H158.56C158.195 85.2038 157.785 85.7583 157.331 86.1867C156.878 86.6025 156.33 86.8104 155.687 86.8104C154.654 86.8104 153.854 86.4513 153.287 85.7331C152.72 85.0148 152.436 84.1076 152.436 83.0113C152.436 81.978 152.65 80.9952 153.079 80.0627C153.52 79.1302 154.131 78.3805 154.912 77.8134C155.706 77.2464 156.601 76.9629 157.596 76.9629Z" fill="#708090"/>
<path d="M146.541 77.1318C147.209 77.1318 147.827 77.2641 148.394 77.5288C148.973 77.7934 149.402 78.2029 149.679 78.7573L147.845 79.5134C147.669 79.1858 147.423 78.9149 147.108 78.7006C146.793 78.4864 146.459 78.3793 146.107 78.3793C145.262 78.3793 144.594 78.7321 144.103 79.4378C143.612 80.1434 143.366 81.0255 143.366 82.084C143.366 83.0542 143.511 83.8544 143.801 84.4844C144.09 85.1019 144.55 85.4106 145.18 85.4106C146.062 85.4106 146.667 85.0011 146.995 84.182C147.323 83.3503 147.486 82.4494 147.486 81.4791V80.6475L149.698 79.8536V84.7679C149.698 84.9444 149.736 85.1019 149.811 85.2405C149.899 85.3665 150.025 85.4295 150.189 85.4295C150.504 85.4295 150.826 85.209 151.153 84.7679L151.512 85.1271C151.323 85.5681 151.021 85.9461 150.605 86.2611C150.202 86.5636 149.767 86.7148 149.301 86.7148C148.696 86.7148 148.255 86.5132 147.978 86.1099C147.701 85.6941 147.562 85.1649 147.562 84.5222H147.486C147.184 85.2027 146.781 85.7571 146.277 86.1855C145.773 86.6014 145.187 86.8093 144.519 86.8093C143.511 86.8093 142.729 86.4439 142.175 85.713C141.633 84.9696 141.362 84.0056 141.362 82.8211C141.362 81.813 141.577 80.8743 142.005 80.0048C142.446 79.1354 143.057 78.4423 143.838 77.9257C144.632 77.3965 145.533 77.1318 146.541 77.1318Z" fill="#708090"/>
<path d="M137.105 76.9629C137.546 76.9629 137.868 77.0952 138.069 77.3598C138.271 77.6118 138.397 77.9143 138.447 78.2671C138.498 78.6073 138.523 79.0483 138.523 79.5902V84.8447C138.523 84.9959 138.567 85.1408 138.655 85.2794C138.756 85.4055 138.876 85.4685 139.014 85.4685C139.203 85.4685 139.367 85.4118 139.506 85.2983C139.657 85.1723 139.814 85.0085 139.978 84.8069L140.3 85.166C140.073 85.6071 139.758 85.9788 139.355 86.2812C138.964 86.571 138.542 86.7159 138.088 86.7159C137.483 86.7159 137.03 86.5458 136.727 86.2056C136.425 85.8528 136.274 85.3613 136.274 84.7313V79.7792C136.274 79.6028 136.255 79.4516 136.217 79.3255C136.179 79.1995 136.091 79.1365 135.952 79.1365C135.524 79.1365 135.089 79.5965 134.648 80.5163C134.207 81.4236 133.835 82.4695 133.533 83.6539C133.231 84.8384 133.079 85.7331 133.079 86.3379L130.868 86.8293V78.8908C130.868 78.7018 130.824 78.5443 130.736 78.4183C130.647 78.2923 130.521 78.2293 130.358 78.2293C130.181 78.2293 130.005 78.3049 129.828 78.4561C129.665 78.5947 129.526 78.7585 129.412 78.9475L129.072 78.5695C129.261 78.1285 129.557 77.7504 129.961 77.4354C130.364 77.1204 130.799 76.9629 131.265 76.9629C131.895 76.9629 132.355 77.1393 132.645 77.4921C132.934 77.8323 133.079 78.3112 133.079 78.9286V82.5766H133.155C133.495 81.1779 133.999 79.8926 134.667 78.7207C135.347 77.5488 136.16 76.9629 137.105 76.9629Z" fill="#708090"/>
<path d="M123.745 77.1318C124.413 77.1318 125.03 77.2641 125.597 77.5288C126.177 77.7934 126.605 78.2029 126.882 78.7573L125.049 79.5134C124.873 79.1858 124.627 78.9149 124.312 78.7006C123.997 78.4864 123.663 78.3793 123.31 78.3793C122.466 78.3793 121.798 78.7321 121.307 79.4378C120.815 80.1434 120.569 81.0255 120.569 82.084C120.569 83.0542 120.714 83.8544 121.004 84.4844C121.294 85.1019 121.754 85.4106 122.384 85.4106C123.266 85.4106 123.871 85.0011 124.198 84.182C124.526 83.3503 124.69 82.4494 124.69 81.4791V80.6475L126.901 79.8536V84.7679C126.901 84.9444 126.939 85.1019 127.015 85.2405C127.103 85.3665 127.229 85.4295 127.393 85.4295C127.708 85.4295 128.029 85.209 128.357 84.7679L128.716 85.1271C128.527 85.5681 128.224 85.9461 127.809 86.2611C127.405 86.5636 126.971 86.7148 126.504 86.7148C125.9 86.7148 125.459 86.5132 125.181 86.1099C124.904 85.6941 124.766 85.1649 124.766 84.5222H124.69C124.388 85.2027 123.984 85.7571 123.48 86.1855C122.976 86.6014 122.39 86.8093 121.722 86.8093C120.714 86.8093 119.933 86.4439 119.379 85.713C118.837 84.9696 118.566 84.0056 118.566 82.8211C118.566 81.813 118.78 80.8743 119.209 80.0048C119.65 79.1354 120.261 78.4423 121.042 77.9257C121.836 77.3965 122.737 77.1318 123.745 77.1318Z" fill="#708090"/>
<path d="M104.59 72.71V76.6603C104.917 75.4002 105.415 74.4426 106.083 73.7873C106.751 73.1321 107.463 72.8045 108.219 72.8045C108.874 72.8045 109.366 73.0124 109.693 73.4282C110.021 73.844 110.197 74.3922 110.222 75.0726V76.6792C110.537 75.4191 111.029 74.4615 111.697 73.8062C112.365 73.1384 113.077 72.8045 113.833 72.8045C114.488 72.8045 114.986 73.0187 115.326 73.4471C115.679 73.8629 115.855 74.4048 115.855 75.0726V84.6745C115.855 84.9391 115.912 85.1596 116.025 85.336C116.151 85.4998 116.328 85.5817 116.554 85.5817C116.743 85.5817 116.932 85.525 117.121 85.4116C117.323 85.2856 117.499 85.1281 117.651 84.9391L118.048 85.3171C117.468 86.2496 116.649 86.7158 115.59 86.7158C114.923 86.7158 114.406 86.5079 114.04 86.0921C113.675 85.6762 113.492 85.0462 113.492 84.2019V75.5641C113.492 74.556 113.247 74.0519 112.755 74.0519C112.377 74.0519 111.987 74.3544 111.583 74.9592C111.193 75.5641 110.865 76.3327 110.6 77.2652C110.348 78.185 110.222 79.0797 110.222 79.9491V86.1488L107.86 86.9237V75.5641C107.86 74.556 107.627 74.0519 107.16 74.0519C106.782 74.0519 106.392 74.3544 105.989 74.9592C105.585 75.5641 105.251 76.3327 104.987 77.2652C104.722 78.185 104.59 79.0797 104.59 79.9491V86.1488L102.246 86.9237V73.4849L104.59 72.71Z" fill="#708090"/>
</svg>
